PathFileType	4	(X/Y/Z)	AB03\squats_1.trc
DataRate	CameraRate	NumFrames	NumMarkers	Units	OrigDataRate	OrigDataStartFrame	OrigNumFrames
200.000000	200.000000	4	35	mm	200.000000	77	309
Frame#	Time	C7			LSHO			STRN			LASI			RASI			LPSI			RPSI			LGTR			RGTR			LTHC			LTHL			LTHR			LKNE			LMKNE			LSHC			LSHL			LSHR			LANK			LMANK			LMT1			LMT5			LCAL			RTHC			RTHL			RTHR			RKNE			RMKNE			RSHC			RSHL			RSHR			RANK			RMANK			RMT1			RMT5			RCAL			
		X1	Y1	Z1	X2	Y2	Z2	X3	Y3	Z3	X4	Y4	Z4	X5	Y5	Z5	X6	Y6	Z6	X7	Y7	Z7	X8	Y8	Z8	X9	Y9	Z9	X10	Y10	Z10	X11	Y11	Z11	X12	Y12	Z12	X13	Y13	Z13	X14	Y14	Z14	X15	Y15	Z15	X16	Y16	Z16	X17	Y17	Z17	X18	Y18	Z18	X19	Y19	Z19	X20	Y20	Z20	X21	Y21	Z21	X22	Y22	Z22	X23	Y23	Z23	X24	Y24	Z24	X25	Y25	Z25	X26	Y26	Z26	X27	Y27	Z27	X28	Y28	Z28	X29	Y29	Z29	X30	Y30	Z30	X31	Y31	Z31	X32	Y32	Z32	X33	Y33	Z33	X34	Y34	Z34	X35	Y35	Z35	

78	24.875	-2133.948066961879	1310.539442381255	2472.88797808657	-2078.765852357994	1228.152768978322	2338.594731836831	-2088.297086302988	1127.137436679525	2488.263366318878	-2359.665152718457	873.9249628294832	2328.168230339493	-2370.675748555413	857.4024629760286	2656.386377037572	-2537.67178543173	1069.493459476265	2441.163264563369	-2534.910460708349	1067.06684034201	2545.268199393719	-2457.998822582364	905.355344727446	2251.900215323428	-2446.507843967858	899.5078814288137	2729.107989395151	-2412.516578151068	808.8023592196705	2228.387945797691	-2287.815467118244	771.0679887766363	2341.24590616474	-2509.003850739714	672.9129649852754	2260.242844709248	-2252.616451092248	520.8629682973451	2204.973853151322	-2258.494464607987	477.9459094674143	2366.109906574016	-2323.374376676265	306.4459536410992	2150.589356849912	-2245.647480750555	266.443454371289	2208.214593275773	-2378.74592728912	251.0324043626263	2222.545565131585	-2331.070454917593	122.3204559998237	2144.399638295366	-2297.261609815861	112.082198155875	2241.180625451354	-2192.760546078091	58.38161053820892	2210.003873735957	-2219.502394659951	56.06666100828744	2104.313384120014	-2406.472089543223	70.33179199517019	2200.108219574059	-2483.937438527259	613.6022741573836	2668.934173485814	-2413.189441440879	755.8122347569101	2756.842407156593	-2281.232192404202	767.8430191236574	2625.383482591118	-2239.184415107407	521.9909722197222	2757.697822338215	-2213.846781619241	495.5763776264905	2604.187159718284	-2362.987128351684	223.5383234551763	2722.523642347278	-2293.51233534157	316.0261416472998	2795.281383598123	-2236.58332661563	264.6654116210021	2735.051750348936	-2326.115866067841	117.0058118310493	2793.150822820466	-2305.285032533229	116.615793498215	2700.032541164003	-2178.803682188447	49.69029843255122	2707.736707454703	-2205.183602916791	56.39688618856727	2823.206754327139	-2401.184786015439	68.76853054674909	2740.724413114638	
79	24.88	-2133.416738093872	1306.602554093602	2472.837883179873	-2078.147075538079	1224.107779156171	2338.80529062773	-2088.222287020985	1123.00589200526	2488.278485756009	-2360.367606183988	871.1075574623775	2328.104017190449	-2371.780133344329	855.3068786431719	2656.459067866573	-2538.026666615376	1067.168998179557	2440.941725869579	-2535.390884146534	1064.808235367756	2545.028933684578	-2458.411555114021	903.4992378252105	2251.923612934155	-2447.384755486032	897.7568518259505	2729.077227869519	-2412.825007241543	807.4945147701553	2228.397739727725	-2288.251208320017	770.2341690952444	2341.445225801303	-2508.877461697692	671.1273026986826	2259.778966412416	-2251.570495419917	520.5984778987141	2204.668379452834	-2257.458587092189	477.570974011833	2365.734166601468	-2322.81743373683	306.3125060314454	2150.393286033957	-2245.195157980594	266.1811754833667	2208.041293120617	-2378.325607727396	251.0984531293909	2222.438792603078	-2331.026496195258	122.2868338155663	2144.339614152113	-2297.248090050083	112.0673777001074	2241.150090249289	-2192.788877318362	58.38048819985588	2210.002527405066	-2219.505499524132	56.06490981344445	2104.308260833939	-2406.481656975544	70.31931268014753	2200.082484900028	-2483.8848236251	611.9763912108824	2669.296596923292	-2413.67166821837	754.549654334219	2757.024750552306	-2281.885344841461	767.1517335973141	2625.393783844379	-2238.542149731587	521.7844957870202	2758.08509303125	-2213.120334400331	495.3748755291486	2604.558266529782	-2362.778120928398	223.6144086463102	2722.653762047426	-2293.146948587659	315.8973205509013	2795.497640681321	-2236.291494016707	264.51215635781	2735.238808524617	-2326.107577142756	116.9915442489163	2793.211471355038	-2305.267861791578	116.6318739669041	2700.107254982958	-2178.822480501833	49.71184802620012	2707.749614795253	-2205.20600969327	56.39388134059936	2823.225287936541	-2401.178567523283	68.767610337566	2740.735102162962	
80	24.885	-2132.903179651325	1302.676406018718	2472.794794922439	-2077.549524921375	1220.083115078952	2339.014407983258	-2088.150892456259	1118.892248929647	2488.294083669681	-2361.061205821185	868.2923250765804	2328.054054274373	-2372.869210106404	853.2441395193765	2656.510044888681	-2538.369126611875	1064.836389371702	2440.71846221034	-2535.868348736747	1062.536270183329	2544.787472552577	-2458.797165997337	901.6514359739422	2251.960130721524	-2448.255893294635	896.006194797244	2729.030980109319	-2413.111378416178	806.1842821975155	2228.414282645608	-2288.679600772864	769.383914469051	2341.663746098434	-2508.735482571733	669.3448052415025	2259.318771912542	-2250.523843483085	520.329387458218	2204.38057945166	-2256.441914713118	477.1834027486105	2365.375462239953	-2322.25836052439	306.1792961648174	2150.204683920229	-2244.744591376713	265.9172416519269	2207.878475130778	-2377.905286870062	251.1627426938983	2222.335941830601	-2330.981771209347	122.2525846665442	2144.282958061831	-2297.235431221815	112.050938335501	2241.120201637916	-2192.815743369716	58.37962530526026	2210.002781173996	-2219.507693874935	56.06322423995264	2104.303402373715	-2406.491278378619	70.30729537837666	2200.055932733754	-2483.81990892821	610.3404929047333	2669.645288178014	-2414.140175989614	753.2726776564455	2757.200586398916	-2282.529531443309	766.4451865811399	2625.393409413519	-2237.8940628006	521.5763016185613	2758.456622333914	-2212.393580625682	495.1627706264893	2604.909655284906	-2362.567392914605	223.6884307131563	2722.777421828352	-2292.779531526175	315.7679352949371	2795.702878763237	-2235.997354334289	264.3568235178289	2735.417639451065	-2326.096767527833	116.9770865455504	2793.267785386214	-2305.250064913766	116.6460818688453	2700.179416457774	-2178.839188417883	49.73220407942936	2707.761288928807	-2205.227717286661	56.39063491500452	2823.243606478467	-2401.170577383305	68.76672503827955	2740.746117693963	
81	24.89	-2132.406239606713	1298.761895524787	2472.759764211675	-2076.972094980898	1216.080040947677	2339.222883630267	-2088.082440815573	1114.79702162605	2488.3111237831	-2361.745180870586	865.4845961646478	2328.018801805112	-2373.940139924644	851.213070174756	2656.538989214889	-2538.699848073793	1062.496932936893	2440.494764209587	-2536.342791534054	1060.25214295768	2544.545050322115	-2459.157485215635	899.8131733352838	2252.010840768603	-2449.12080850041	894.2569753222684	2728.969387708178	-2413.377045643029	804.8720336484383	2228.437150264725	-2289.100899349075	768.5178577675309	2341.900589178835	-2508.578519306264	667.5661169265154	2258.862530701766	-2249.476841480389	520.0561949047498	2204.109878654306	-2255.444372367917	476.7831108343687	2365.033326032463	-2321.697730576997	306.0466054831246	2150.0235870826	-2244.296017430791	265.6519679649433	2207.725758061267	-2377.485139202887	251.2255271209095	2222.237051455923	-2330.936396447034	122.2177260455107	2144.22961855948	-2297.223656284287	112.0326962467986	2241.090673503842	-2192.840858822697	58.37920887001991	2210.004522300683	-2219.50903546804	56.06143260482171	2104.298782470457	-2406.500796582754	70.29583406141465	2200.028680968555	-2483.743711448239	608.6960422733898	2669.980068949175	-2414.595250707928	751.9820831262629	2757.369967091947	-2283.165353114982	765.7238896601655	2625.382222604883	-2237.24067745926	521.3666333440464	2758.811235326447	-2211.668046432143	494.9403206108845	2605.24018708396	-2362.355075062067	223.760125993616	2722.894619432188	-2292.410250583686	315.638015438435	2795.896804469324	-2235.701210141366	264.1994445280152	2735.587737670718	-2326.083522122784	116.9624707842712	2793.319805991223	-2305.231745412972	116.6584463500397	2700.248421107075	-2178.85389394594	49.75123681150151	2707.771656125045	-2205.248557879848	56.38719996490051	2823.261585005814	-2401.160851787143	68.76583261642091	2740.757534175187	
